<svg width="200" height="175" viewBox="0 0 200 175" fill="none" xmlns="http://www.w3.org/2000/svg">
<path d="M45 42L0 87L45 132V42Z" fill="black"/>
<path d="M113.576 32.4189C104.661 32.4189 97.3666 25.1247 97.3666 16.2095C97.3666 7.29426 104.661 0 113.576 0C122.491 0 129.786 7.29426 129.786 16.2095C129.786 25.1247 122.491 32.4189 113.576 32.4189ZM142.753 145.075L134.648 109.414L117.628 125.623V174.252H101.419V113.466L118.439 97.2568L113.576 72.9426C103.04 85.0997 86.8304 93.2045 69 93.2045V76.995C84.399 76.995 97.3666 68.8903 103.85 57.5436L111.955 44.5761C115.197 39.7132 120.06 36.4713 125.733 36.4713C128.165 36.4713 129.786 37.2818 132.217 37.2818L174.362 55.1122V93.2045H158.152V65.6484L143.564 59.9751L156.531 125.623L196.244 117.519L199.486 133.728L142.753 145.075Z" fill="black"/>
</svg>
