<svg width="199" height="175" viewBox="0 0 199 175" fill="none" xmlns="http://www.w3.org/2000/svg">
<path d="M154 132L199 87L154 42V132Z" fill="black"/>
<path d="M85.9102 32.4189C94.8254 32.4189 102.12 25.1247 102.12 16.2095C102.12 7.29426 94.8254 0 85.9102 0C76.995 0 69.7007 7.29426 69.7007 16.2095C69.7007 25.1247 76.995 32.4189 85.9102 32.4189ZM56.7332 145.075L64.8379 109.414L81.8578 125.623V174.252H98.0673V113.466L81.0474 97.2569L85.9102 72.9426C96.4464 85.0997 112.656 93.2045 130.486 93.2045V76.995C115.087 76.995 102.12 68.8903 95.6359 57.5436L87.5312 44.5761C84.2893 39.7132 79.4264 36.4713 73.7531 36.4713C71.3217 36.4713 69.7007 37.2818 67.2693 37.2818L25.1247 55.1122V93.2045H41.3342V65.6484L55.9227 59.9751L42.9551 125.623L3.24189 117.519L0 133.728L56.7332 145.075Z" fill="black"/>
</svg>
