<svg width="69" height="69" viewBox="0 0 69 69" fill="none" xmlns="http://www.w3.org/2000/svg">
<g clip-path="url(#clip0_2_75)">
<path d="M46 11.5H23C16.6487 11.5 11.5 16.6487 11.5 23V46C11.5 52.3513 16.6487 57.5 23 57.5H46C52.3513 57.5 57.5 52.3513 57.5 46V23C57.5 16.6487 52.3513 11.5 46 11.5Z" stroke="black" stroke-width="2.75" stroke-linecap="round" stroke-linejoin="round"/>
<path d="M34.5 43.125C39.2635 43.125 43.125 39.2635 43.125 34.5C43.125 29.7365 39.2635 25.875 34.5 25.875C29.7365 25.875 25.875 29.7365 25.875 34.5C25.875 39.2635 29.7365 43.125 34.5 43.125Z" stroke="black" stroke-width="2.75" stroke-linecap="round" stroke-linejoin="round"/>
<path d="M47.4375 21.5625V21.5646" stroke="black" stroke-width="2.75" stroke-linecap="round" stroke-linejoin="round"/>
</g>
<defs>
<clipPath id="clip0_2_75">
<rect width="69" height="69" fill="white"/>
</clipPath>
</defs>
</svg>
