<svg width="138" height="138" viewBox="0 0 138 138" fill="none" xmlns="http://www.w3.org/2000/svg">
<g clip-path="url(#clip0_2_66)">
<path d="M69 69V34.5C69 31.45 70.2116 28.5249 72.3683 26.3683C74.5249 24.2116 77.45 23 80.5 23C83.55 23 86.4751 24.2116 88.6317 26.3683C90.7884 28.5249 92 31.45 92 34.5V69M92 57.5C92 55.2255 92.6745 53.0021 93.9381 51.1109C95.2017 49.2198 96.9978 47.7458 99.0991 46.8754C101.2 46.005 103.513 45.7772 105.744 46.221C107.974 46.6647 110.023 47.76 111.632 49.3683C113.24 50.9766 114.335 53.0257 114.779 55.2565C115.223 57.4872 114.995 59.7995 114.125 61.9009C113.254 64.0022 111.78 65.7983 109.889 67.0619C107.998 68.3255 105.774 69 103.5 69H69" stroke="white" stroke-width="2.75" stroke-linecap="round" stroke-linejoin="round"/>
<path d="M69 69H103.5C106.55 69 109.475 70.2116 111.632 72.3683C113.788 74.5249 115 77.45 115 80.5C115 83.55 113.788 86.4751 111.632 88.6317C109.475 90.7884 106.55 92 103.5 92H69M80.5 92C82.7745 92 84.9979 92.6745 86.8891 93.9381C88.7802 95.2017 90.2542 96.9978 91.1246 99.0991C91.995 101.2 92.2228 103.513 91.779 105.744C91.3353 107.974 90.24 110.023 88.6317 111.632C87.0234 113.24 84.9743 114.335 82.7435 114.779C80.5128 115.223 78.2005 114.995 76.0991 114.125C73.9978 113.254 72.2017 111.78 70.9381 109.889C69.6745 107.998 69 105.774 69 103.5V69" stroke="white" stroke-width="2.75" stroke-linecap="round" stroke-linejoin="round"/>
<path d="M69 69V103.5C69 106.55 67.7884 109.475 65.6317 111.632C63.4751 113.788 60.55 115 57.5 115C54.45 115 51.525 113.788 49.3683 111.632C47.2116 109.475 46 106.55 46 103.5V69M46 80.5C46 82.7745 45.3255 84.9979 44.0619 86.8891C42.7983 88.7802 41.0022 90.2542 38.9009 91.1246C36.7995 91.995 34.4873 92.2228 32.2565 91.779C30.0257 91.3353 27.9766 90.24 26.3683 88.6317C24.76 87.0234 23.6647 84.9743 23.221 82.7435C22.7772 80.5128 23.005 78.2005 23.8754 76.0991C24.7458 73.9978 26.2198 72.2017 28.111 70.9381C30.0021 69.6745 32.2255 69 34.5 69H69" stroke="white" stroke-width="2.75" stroke-linecap="round" stroke-linejoin="round"/>
<path d="M69 69H34.5C31.45 69 28.5249 67.7884 26.3683 65.6317C24.2116 63.4751 23 60.55 23 57.5C23 54.45 24.2116 51.5249 26.3683 49.3683C28.5249 47.2116 31.45 46 34.5 46H69M57.5 46C55.2255 46 53.0021 45.3255 51.1109 44.0619C49.2198 42.7983 47.7458 41.0022 46.8754 38.9009C46.005 36.7995 45.7772 34.4872 46.221 32.2565C46.6647 30.0257 47.76 27.9766 49.3683 26.3683C50.9766 24.76 53.0257 23.6647 55.2565 23.221C57.4872 22.7772 59.7995 23.005 61.9009 23.8754C64.0022 24.7458 65.7983 26.2198 67.0619 28.1109C68.3255 30.0021 69 32.2255 69 34.5V69" stroke="white" stroke-width="2.75" stroke-linecap="round" stroke-linejoin="round"/>
</g>
<defs>
<clipPath id="clip0_2_66">
<rect width="138" height="138" fill="white"/>
</clipPath>
</defs>
</svg>
