<svg width="138" height="138" viewBox="0 0 138 138" fill="none" xmlns="http://www.w3.org/2000/svg">
<g clip-path="url(#clip0_2_63)">
<path d="M67.0852 34.5C52.7677 34.5 43.8323 41.5265 40.25 55.5852C45.6148 48.553 51.8823 45.9252 59.0353 47.679C63.1178 48.6795 66.033 51.589 69.2588 54.809C74.5258 60.053 80.7588 66.125 93.9148 66.125C108.232 66.125 117.168 59.0985 120.75 45.0398C115.385 52.072 109.118 54.6998 101.965 52.946C97.8822 51.9455 94.967 49.036 91.7412 45.816C86.4742 40.572 80.385 34.5 67.0852 34.5ZM44.0852 71.875C29.7677 71.875 20.8323 78.9015 17.25 92.9602C22.6148 85.928 28.8823 83.3002 36.0353 85.054C40.1178 86.0545 43.033 88.964 46.2588 92.184C51.5258 97.428 57.615 103.5 70.9148 103.5C85.2323 103.5 94.1677 96.4735 97.75 82.4148C92.3852 89.447 86.1177 92.0748 78.9647 90.321C74.8822 89.3205 71.967 86.411 68.7412 83.191C63.4742 77.947 57.385 71.875 44.0852 71.875Z" stroke="white" stroke-width="2.75" stroke-linecap="round" stroke-linejoin="round"/>
</g>
<defs>
<clipPath id="clip0_2_63">
<rect width="138" height="138" fill="white"/>
</clipPath>
</defs>
</svg>
