<svg width="138" height="138" viewBox="0 0 138 138" fill="none" xmlns="http://www.w3.org/2000/svg">
<g clip-path="url(#clip0_2_72)">
<path d="M100.625 41.4C110.4 47.15 115 57.5 115 69C115 83.375 100.625 94.875 86.25 94.875H71.3L67.85 115.575C67.5812 116.893 66.8586 118.076 65.8079 118.916C64.7573 119.757 63.4452 120.202 62.1 120.175H46.575C46.1438 120.184 45.7162 120.095 45.3238 119.916C44.9314 119.737 44.5843 119.472 44.3082 119.141C44.0321 118.81 43.834 118.421 43.7288 118.002C43.6235 117.584 43.6137 117.148 43.7 116.725L44.85 108.675M57.5 74.75H71.875C86.25 74.75 100.625 60.375 100.625 46C100.625 28.75 89.7 17.25 71.875 17.25H40.25C37.375 17.25 34.5 20.125 34.5 23L23 103.5C23 106.375 25.875 109.25 28.75 109.25H44.85L51.75 80.5C52.325 77.05 54.05 74.75 57.5 74.75Z" stroke="white" stroke-width="2.75" stroke-linecap="round" stroke-linejoin="round"/>
</g>
<defs>
<clipPath id="clip0_2_72">
<rect width="138" height="138" fill="white"/>
</clipPath>
</defs>
</svg>
