<svg width="138" height="138" viewBox="0 0 138 138" fill="none" xmlns="http://www.w3.org/2000/svg">
<g clip-path="url(#clip0_2_59)">
<path d="M51.75 40.25C34.5 40.25 28.75 57.5 28.75 71.875C28.75 89.125 40.25 115 51.75 115C58.006 114.735 61.4043 112.125 69 112.125C76.544 112.125 77.625 115 86.25 115C94.875 115 109.25 97.75 109.25 86.25C109.089 86.1925 95.036 83.9327 94.875 69C94.7658 56.5225 108.767 52.0145 109.25 51.75C103.368 43.171 92.2818 40.4627 89.125 40.25C80.8853 39.6117 72.8525 46 69 46C65.09 46 58.075 40.25 51.75 40.25Z" stroke="white" stroke-width="2.75" stroke-linecap="round" stroke-linejoin="round"/>
<path d="M69 23C72.05 23 74.9751 21.7884 77.1317 19.6317C79.2884 17.4751 80.5 14.55 80.5 11.5C77.45 11.5 74.5249 12.7116 72.3683 14.8683C70.2116 17.0249 69 19.95 69 23" stroke="white" stroke-width="2.75" stroke-linecap="round" stroke-linejoin="round"/>
</g>
<defs>
<clipPath id="clip0_2_59">
<rect width="138" height="138" fill="white"/>
</clipPath>
</defs>
</svg>
